<svg width="66" height="55" viewBox="0 0 66 55" fill="none" xmlns="http://www.w3.org/2000/svg">
<g id="Group">
<path id="Vector" d="M62.1967 3.76842H59.4606V1.14657C59.4606 0.606119 59.0277 0.167969 58.4938 0.167969H52.6647C52.1307 0.167969 51.6979 0.606119 51.6979 1.14657V3.76842H19.7575V1.14657C19.7575 0.606119 19.3246 0.167969 18.7907 0.167969H12.9615C12.4276 0.167969 11.9948 0.606119 11.9948 1.14657V3.76842H9.73605C7.37539 3.76842 5.45508 5.71231 5.45508 8.10165V31.913C5.45508 32.4535 5.88795 32.8916 6.42188 32.8916C6.9558 32.8916 7.38867 32.4535 7.38867 31.913V8.10178C7.38867 6.79164 8.44171 5.72575 9.73605 5.72575H62.1967C63.2276 5.72575 64.0664 6.57478 64.0664 7.61836V39.9813C64.0664 41.0249 63.2276 41.874 62.1967 41.874H60.1362V38.1702C60.1362 37.6297 59.7033 37.1916 59.1694 37.1916H48.7812C48.2473 37.1916 47.8145 37.6297 47.8145 38.1702V41.874H32.3189L35.977 40.8614C37.8717 40.3382 39.5321 39.2492 40.779 37.712L46.9923 30.0503C47.116 29.8981 47.1951 29.701 47.2099 29.5044L47.7577 22.1996C47.8119 21.4775 47.379 20.7685 46.7212 20.4898C47.0141 20.3216 47.2121 20.0037 47.2121 19.6385C47.2121 19.0981 46.7792 18.6599 46.2453 18.6599H42.0088C41.4748 18.6599 41.042 19.0981 41.042 19.6385C41.042 20.179 41.4748 20.6171 42.0088 20.6171H45.171C45.0651 20.685 44.965 20.7652 44.8731 20.8584L41.3252 24.4496C40.6399 25.1429 40.0758 26.0138 39.4685 26.7781C39.1339 27.1993 39.1999 27.8153 39.616 28.154C40.0321 28.4928 40.6407 28.4259 40.9753 28.0048L42.0875 26.6051L44.9419 29.4943L39.2847 36.4704C38.2937 37.6921 36.9739 38.5577 35.4676 38.9737L20.2009 43.4204C19.0186 43.8041 19.6077 45.6679 20.7912 45.2842L24.1492 44.1944V52.3943H22.806C22.2721 52.3943 21.8392 52.8324 21.8392 53.3729C21.8392 53.9133 22.2721 54.3515 22.806 54.3515H28.7161C29.25 54.3515 29.6829 53.9133 29.6829 53.3729C29.6829 52.8324 29.25 52.3943 28.7161 52.3943H26.0829V43.831H62.1967C64.2938 43.831 66 42.104 66 39.9812V7.61823C66 5.49545 64.2938 3.76842 62.1967 3.76842ZM53.6315 2.12516H57.527V3.7679H53.6315V2.12516ZM13.9283 2.12516H17.8239V3.7679H13.9283V2.12516ZM45.7806 22.7075L45.4413 27.2317L43.3762 25.1414L45.7806 22.7075ZM49.748 41.8738V39.1486H58.2026V41.8738H49.748Z" fill="#73AB3A"/>
<path id="Vector_2" d="M18.1894 52.3939H5.77629V47.1977C5.77629 43.8968 6.52833 40.6032 7.96318 37.6387C8.74796 36.0178 10.4069 34.9704 12.1894 34.9704H28.4805C31.8856 34.9704 35.1979 33.7524 37.8074 31.5406C38.2168 31.1937 38.2708 30.5764 37.9281 30.1621C37.5852 29.7476 36.9755 29.6931 36.5662 30.04C34.3041 31.9573 31.4326 33.0132 28.4807 33.0132H21.4795C22.5641 31.8705 23.2329 30.3207 23.2329 28.6148V25.0212C25.7182 24.8553 27.6905 22.757 27.6905 20.2001C27.6905 17.5346 25.5486 15.3659 22.9158 15.3659C21.3063 15.3276 19.7741 15.7068 18.646 16.9491C18.0947 17.554 17.3125 17.901 16.5001 17.901H13.8434C11.6242 17.901 9.81892 19.729 9.81892 21.9758V29.3101C9.81892 30.1428 10.0167 30.96 10.5137 31.636C10.7379 31.9408 11.0138 32.2061 11.3256 32.4177C11.6619 32.6461 12.1524 32.7288 12.4224 33.0132C9.83413 32.9693 7.37589 34.4044 6.22695 36.7776C4.66267 40.0094 3.84282 43.5989 3.84282 47.1977V52.3939H0.966797C0.432867 52.3939 0 52.8321 0 53.3725C0 53.9129 0.432867 54.3511 0.966797 54.3511H18.1894C18.7234 54.3511 19.1562 53.9129 19.1562 53.3725C19.1562 52.8321 18.7234 52.3939 18.1894 52.3939ZM16.6792 33.0046C16.1397 32.9711 15.6154 32.8345 15.1319 32.6084C15.3562 32.4918 15.5737 32.3482 15.7682 32.1857C16.5718 31.5145 17.0145 30.5211 17.0145 29.3885V25.0331H21.2993V28.6148C21.2993 31.0401 19.3493 33.0132 16.9526 33.0132C16.85 33.0132 16.7635 33.0106 16.6792 33.0046ZM11.7524 29.3102V21.976C11.7524 20.8083 12.6903 19.8583 13.8432 19.8583H16.5C17.8508 19.8583 19.151 19.2817 20.0684 18.2749C20.828 17.4383 21.859 17.2834 22.9157 17.3231C24.4823 17.3231 25.7568 18.6138 25.7568 20.2001C25.7568 21.7859 24.4823 23.0759 22.9157 23.0759H16.0475C15.5136 23.0759 15.0807 23.5141 15.0807 24.0545V29.3885C15.0807 30.5301 14.0856 31.2468 13.0072 31.0386C12.1435 30.8718 11.7524 30.1602 11.7524 29.3102Z" fill="#73AB3A"/>
<path id="Vector_3" d="M33.0947 15.1133H38.36C38.894 15.1133 39.3268 14.6752 39.3268 14.1347V10.5338C39.3268 9.99333 38.894 9.55518 38.36 9.55518H33.0947C32.5608 9.55518 32.1279 9.99333 32.1279 10.5338V14.1347C32.1279 14.6752 32.5608 15.1133 33.0947 15.1133ZM34.0615 11.5124H37.3932V13.1562H34.0615V11.5124Z" fill="#73AB3A"/>
<path id="Vector_4" d="M32.1279 21.4391C32.1279 21.9795 32.5608 22.4177 33.0947 22.4177H38.36C38.894 22.4177 39.3268 21.9795 39.3268 21.4391V17.838C39.3268 17.2975 38.894 16.8594 38.36 16.8594H33.0947C32.5608 16.8594 32.1279 17.2975 32.1279 17.838V21.4391ZM34.0615 18.8166H37.3932V20.4605H34.0615V18.8166Z" fill="#73AB3A"/>
<path id="Vector_5" d="M42.0088 13.3132H59.1694C59.7034 13.3132 60.1362 12.875 60.1362 12.3346C60.1362 11.7941 59.7034 11.356 59.1694 11.356H42.0088C41.4749 11.356 41.042 11.7941 41.042 12.3346C41.042 12.875 41.4749 13.3132 42.0088 13.3132Z" fill="#73AB3A"/>
</g>
</svg>
