<svg width="67" height="57" viewBox="0 0 67 57" fill="none" xmlns="http://www.w3.org/2000/svg">
<g id="Layer 1">
<path id="Vector" d="M10.6569 36.9487C10.2775 33.6076 9.62888 33.0396 6.44189 33.0396C5.35068 33.0396 4.25713 33.0228 3.16357 33.0396C1.09824 33.0825 0 34.209 0 36.302C0 41.0321 0 45.7631 0 50.4948C0 52.5353 1.17083 53.7548 3.16826 53.793C4.49363 53.8169 5.82135 53.793 7.14907 53.793C9.42047 53.7739 10.5374 52.6594 10.5445 50.3731C10.5585 46.8768 10.5655 43.3781 10.5445 39.8723C10.5445 39.1133 10.7529 38.8174 11.5373 38.8246C14.736 38.8604 17.9347 38.8246 21.1381 38.858C21.5173 38.8537 21.8845 38.9932 22.1684 39.2494C24.215 41.5405 26.2367 43.8554 28.2333 46.1942C28.8632 46.9269 28.5213 47.5784 27.9406 48.1775C27.3201 48.8147 26.7909 48.6405 26.2335 48.082C25.1494 46.9961 24.0418 45.9341 22.9552 44.853C22.4869 44.39 21.9834 44.0988 21.4425 44.6668C20.9016 45.2348 21.1779 45.7408 21.6533 46.2062C22.8054 47.3374 23.9059 48.5259 25.1166 49.5855C25.6448 50.0397 26.2872 50.334 26.9712 50.4352C28.5073 50.6285 29.4463 49.6189 30.0902 48.3732C30.7342 47.1274 30.4743 45.8983 29.5681 44.8458C27.7697 42.7528 25.9034 40.7171 24.1635 38.574C23.1824 37.364 22.0841 36.8604 20.5316 36.9034C17.251 37.0203 13.982 36.9487 10.6569 36.9487ZM48.8984 26.9467C56.0147 26.9896 61.9602 21.071 62.0117 13.8946C62.0538 6.32924 56.3074 0.281709 49.0038 0.217272C41.8735 0.155221 35.9257 6.18366 35.8648 13.551C35.8039 20.9182 41.665 26.9037 48.8984 26.9467ZM27.1632 56.9003C27.9781 56.602 28.8656 56.4087 29.6219 55.9815C35.8897 52.4399 42.1443 48.8735 48.3856 45.2826C50.273 44.2039 50.8115 42.6574 49.999 40.6861C49.0225 38.3138 47.6573 37.5836 45.4351 38.2303C43.3417 38.8429 41.2498 39.4594 39.1595 40.0799C36.8436 40.7696 34.523 41.4355 32.2305 42.1896C31.8371 42.3185 31.4929 42.7958 31.2939 43.1967C31.2213 43.3328 31.5842 43.9127 31.8278 43.97C32.2444 44.0442 32.6727 44.0072 33.0712 43.8626C37.333 42.6168 41.5878 41.3472 45.8449 40.0894C47.2218 39.6837 47.6971 39.9391 48.2638 41.3471C48.7485 42.5404 48.5799 43.0058 47.3272 43.7337C41.1811 47.2515 35.0343 50.7693 28.8866 54.287C27.6924 54.972 26.5661 55.003 25.3437 54.361C22.7866 53.0102 20.1921 51.7239 17.6163 50.397C17.0215 50.0915 16.3939 49.8123 16.0005 50.5736C15.6071 51.3349 16.1317 51.7979 16.7897 52.1296C19.4404 53.4685 22.0701 54.8503 24.7372 56.1557C25.4397 56.497 26.2593 56.6306 27.1632 56.9003ZM32.9213 20.0639C32.9213 15.1977 28.9944 11.1644 24.2431 11.1549C21.9185 11.1637 19.692 12.1114 18.0518 13.7903C16.4115 15.4692 15.4911 17.7423 15.4924 20.1116C15.5205 24.9658 19.4896 28.992 24.2291 28.9753C26.534 28.9447 28.7353 27.9944 30.3604 26.3283C31.9855 24.6622 32.905 22.4131 32.9213 20.0639ZM17.6795 28.8941C16.2183 27.3381 16.223 27.3524 14.4386 27.77C13.4551 28.0087 12.4389 28.1018 11.4718 28.3834C11.0175 28.517 10.6428 28.9418 10.233 29.233C10.5234 29.6459 10.7271 30.2115 11.1205 30.443C13.5441 31.8749 16.0029 33.2424 18.471 34.5884C18.8749 34.8083 19.3336 34.9013 19.7893 34.8557C27.2826 33.7985 33.6683 30.054 40.047 26.078L38.5132 24.7868C38.0167 25.0995 37.5578 25.3978 37.0918 25.6794C32.3687 28.5433 27.5425 31.1685 22.1497 32.505C21.2528 32.7269 20.171 33.1374 19.4217 32.8319C17.5765 32.0825 15.8764 30.968 13.9188 29.8917L17.6795 28.8941ZM66.236 9.09525C65.5663 8.67045 65.1682 8.22178 64.8966 8.29337C64.529 8.38645 64.2597 8.87569 63.9459 9.19788C64.2503 9.49619 64.55 10.0284 64.8615 10.0356C65.2104 10.0451 65.5663 9.57972 66.236 9.09525Z" fill="white"/>
<path id="Vector_2" d="M10.6569 36.9491C13.982 36.9491 17.251 37.0207 20.5176 36.9181C22.0701 36.8703 23.1683 37.3739 24.1495 38.5887C25.8893 40.7366 27.7556 42.7675 29.554 44.8605C30.4602 45.913 30.7248 47.1301 30.0762 48.3879C29.4276 49.6456 28.4932 50.6432 26.9571 50.4498C26.2732 50.3487 25.6307 50.0544 25.1025 49.6002C23.8919 48.5406 22.7913 47.3521 21.6392 46.2209C21.1709 45.7436 20.8922 45.2424 21.4285 44.6815C21.9647 44.1207 22.4752 44.4047 22.9412 44.8677C24.0324 45.9464 25.14 47.0156 26.2195 48.0967C26.7768 48.6552 27.306 48.8294 27.9266 48.1922C28.5073 47.5931 28.8492 46.9416 28.2193 46.2089C26.2195 43.8749 24.1979 41.5599 22.1544 39.2641C21.8704 39.0079 21.5032 38.8684 21.1241 38.8727C17.9254 38.8416 14.7267 38.8727 11.5233 38.8393C10.7482 38.8273 10.5374 39.1185 10.5374 39.8822C10.5655 43.3809 10.5585 46.8796 10.5374 50.383C10.5374 52.6693 9.41345 53.7839 7.14204 53.803C5.81667 53.803 4.48895 53.8244 3.16123 53.803C1.17083 53.7552 0 52.5357 0 50.4952C0 45.7634 0 41.0325 0 36.3023C0 34.2093 1.09355 33.0829 3.16357 33.0447C4.25478 33.0232 5.34834 33.0447 6.44189 33.0447C9.62888 33.0399 10.2775 33.6151 10.6569 36.9491ZM1.83117 43.4644C1.83117 45.765 1.85459 48.0681 1.83117 50.3687C1.81478 51.4426 2.32994 51.8937 3.31344 51.9009C4.63725 51.9104 5.96419 51.9104 7.29425 51.9009C8.21218 51.9009 8.72968 51.5142 8.725 50.4689C8.70002 45.7483 8.70002 41.0261 8.725 36.3023C8.725 35.3477 8.31521 34.9229 7.39026 34.9349C6.02742 34.9516 4.66457 34.9635 3.30173 34.9349C2.25267 34.911 1.83117 35.3978 1.84288 36.4479C1.84991 38.782 1.83117 41.1232 1.83117 43.4644Z" fill="#72AB3A"/>
<path id="Vector_3" d="M48.8983 26.9467C41.665 26.9037 35.8062 20.8801 35.8647 13.5509C35.9232 6.22184 41.8734 0.155218 49.0037 0.217269C56.3073 0.281706 62.0537 6.32923 62.0069 13.8946C61.9601 21.071 56.0146 26.9896 48.8983 26.9467ZM48.9171 25.0374C51.8981 25.0469 54.7607 23.8491 56.8752 21.7075C58.9897 19.5659 60.1828 16.6559 60.1921 13.6178C60.2014 10.5796 59.0262 7.66208 56.9249 5.50705C54.8236 3.35202 51.9683 2.13601 48.9873 2.12651C42.885 2.06923 37.7591 7.27431 37.724 13.5581C37.7177 16.5922 38.8928 19.5048 40.9912 21.6569C43.0897 23.809 45.9401 25.0248 48.9171 25.0374Z" fill="#72AB3A"/>
<path id="Vector_4" d="M27.1628 56.9002C26.2682 56.6305 25.4487 56.4968 24.7321 56.146C22.0556 54.8406 19.4353 53.4587 16.7752 52.1199C16.1172 51.7882 15.5763 51.3586 15.986 50.5639C16.3958 49.7691 17.007 50.0865 17.6018 50.3872C20.1776 51.7142 22.7534 53.0005 25.3292 54.3513C26.5516 54.9981 27.6709 54.9623 28.8722 54.2773C35.012 50.7452 41.1588 47.2275 47.3127 43.724C48.5678 43.008 48.7364 42.5522 48.2493 41.3374C47.6827 39.9294 47.2073 39.6668 45.8304 40.0797C41.5733 41.3374 37.3185 42.6071 33.0567 43.8529C32.6583 43.9975 32.2299 44.0345 31.8133 43.9603C31.5791 43.8934 31.2068 43.323 31.2794 43.187C31.4901 42.7861 31.8344 42.3088 32.216 42.1799C34.5085 41.4257 36.8291 40.748 39.145 40.0702C41.2337 39.4465 43.3256 38.83 45.4206 38.2206C47.6475 37.5715 49.008 38.3041 49.9845 40.6764C50.7971 42.6477 50.2585 44.1941 48.3711 45.2729C42.1267 48.8479 35.8721 52.4142 29.6074 55.9718C28.8558 56.4085 27.9683 56.6018 27.1628 56.9002Z" fill="#72AB3A"/>
<path id="Vector_5" d="M32.9211 20.0638C32.9048 22.413 31.9853 24.6621 30.3602 26.3282C28.7351 27.9943 26.5338 28.9446 24.2289 28.9752C19.4894 28.9919 15.5203 24.9658 15.4922 20.1115C15.4909 17.7423 16.4113 15.4691 18.0516 13.7902C19.6919 12.1113 21.9183 11.1636 24.2429 11.1548C28.9942 11.1643 32.9211 15.1976 32.9211 20.0638ZM24.1704 13.0354C20.4659 13.0688 17.3515 16.2763 17.3468 20.0662C17.3421 23.856 20.4776 27.054 24.1867 27.0826C27.8959 27.1113 31.1438 23.7868 31.0595 19.9922C30.9752 16.1976 27.8655 13.0044 24.1704 13.0354Z" fill="#72AB3A"/>
<path id="Vector_6" d="M17.6789 28.8846L13.9182 29.8822C15.8758 30.9585 17.5758 32.073 19.4211 32.8224C20.1704 33.1279 21.2522 32.7174 22.1491 32.4955C27.5349 31.1685 32.3681 28.5314 37.0912 25.6699C37.5595 25.3883 38.0161 25.09 38.5126 24.7773L40.0464 26.0685C33.6677 30.0492 27.2914 33.789 19.7887 34.8462C19.3335 34.8932 18.8748 34.8019 18.4704 34.5837C16.0023 33.2377 13.5529 31.8678 11.1199 30.4382C10.7265 30.1996 10.5228 29.6411 10.2324 29.2283C10.6422 28.9371 11.0169 28.5123 11.4712 28.3787C12.4383 28.097 13.4545 27.9944 14.438 27.7653C16.2224 27.3429 16.2177 27.3286 17.6789 28.8846Z" fill="#72AB3A"/>
<path id="Vector_7" d="M1.83045 43.4638C1.83045 41.1226 1.84918 38.7814 1.83045 36.4402C1.83045 35.3901 2.24024 34.9032 3.2893 34.9271C4.65214 34.9605 6.01498 34.9486 7.37782 34.9271C8.31449 34.9152 8.71491 35.3376 8.71257 36.2946C8.69383 41.0184 8.69383 45.7406 8.71257 50.4612C8.71257 51.5089 8.19974 51.8931 7.28182 51.8931C5.95956 51.9027 4.63263 51.9027 3.30101 51.8931C2.31751 51.8931 1.80235 51.4349 1.81874 50.361C1.85386 48.0675 1.83045 45.7645 1.83045 43.4638Z" fill="white"/>
<path id="Vector_8" d="M48.9177 25.0376C45.9424 25.025 43.0934 23.8105 40.9952 21.6605C38.897 19.5104 37.7209 16.6002 37.7246 13.5678C37.7597 7.28401 42.8763 2.07893 48.988 2.13621C51.969 2.1457 54.8242 3.36172 56.9255 5.51675C59.0268 7.67178 60.2021 10.5893 60.1928 13.6275C60.1835 16.6656 58.9903 19.5756 56.8758 21.7172C54.7614 23.8588 51.8987 25.0566 48.9177 25.0471V25.0376ZM47.693 20.2645L48.0138 20.0998C48.0138 20.4148 48.0138 20.7322 48.0138 21.0544C47.9811 21.8014 48.1333 22.5102 49.009 22.4864C49.831 22.4553 49.9153 21.737 49.852 21.0544C49.7888 20.3719 49.9996 20.0425 50.7442 19.8468C52.4887 19.3886 53.4488 18.076 53.3879 16.5319C53.3317 15.0833 52.4021 14.0236 50.6014 13.4031C49.571 13.0499 48.4705 12.8518 47.5151 12.3554C47.035 12.1168 46.5105 11.3125 46.5597 10.8209C46.6089 10.3293 47.2622 9.66818 47.7914 9.49873C49.5804 8.91641 51.3624 9.6109 52.0064 11.0906C52.1398 11.3984 52.7814 11.4796 53.1772 11.6633C53.3177 11.186 53.7228 10.5297 53.5542 10.303C52.8938 9.4152 52.182 8.33171 51.243 7.94986C50.0722 7.47255 49.7232 6.92841 49.7888 5.74468C49.8075 5.42011 49.2362 5.06213 48.9365 4.71846C48.6274 5.05974 48.1684 5.35329 48.0419 5.75423C47.8874 6.2554 48.0045 6.84488 48.0045 7.37947C47.4967 7.5406 46.9973 7.72779 46.5082 7.94031C44.1665 9.10972 43.8715 12.1406 46.0047 13.6824C46.6533 14.1597 47.4682 14.3983 48.2269 14.6823C48.9856 14.9663 49.8286 15.0928 50.5428 15.4675C50.9596 15.6871 51.4467 16.2575 51.4467 16.6727C51.4467 17.088 50.9596 17.644 50.5452 17.866C49.1051 18.6631 46.9741 18.0331 46.096 16.6035C45.726 15.9925 45.3725 15.3148 44.5857 15.8326C43.7989 16.3505 44.1009 17.2192 44.5857 17.6965C45.5504 18.6464 46.6557 19.4244 47.693 20.2645Z" fill="white"/>
<path id="Vector_9" d="M24.1712 13.0354C27.8594 13.0044 30.9878 16.1618 31.0604 19.9922C31.133 23.8226 27.9109 27.1113 24.1876 27.0826C20.4644 27.054 17.3406 23.8441 17.3477 20.0662C17.3547 16.2883 20.4668 13.0688 24.1712 13.0354ZM22.9325 20.8991C22.4267 21.0709 21.5978 21.1377 21.4947 21.4432C21.3519 21.8704 21.7289 22.5005 21.949 23.016C22.031 23.2164 22.3026 23.3238 22.4454 23.5076C22.7569 23.9085 23.0145 24.3572 23.3446 24.7414C23.5788 25.0111 23.9113 25.4097 24.1642 25.3834C24.4921 25.35 24.8175 24.9825 25.0775 24.6961C25.2952 24.4574 25.3468 24.0111 25.5926 23.8608C26.5293 23.288 27.0445 22.5219 26.8618 21.4074C26.6792 20.2929 25.8807 19.7774 24.8878 19.4528C24.3092 19.2235 23.7446 18.9589 23.1971 18.6605C24.1338 17.7584 24.7496 17.9302 25.2203 18.6915C25.5762 19.2667 25.9369 19.6843 26.6066 19.2714C27.3301 18.8252 27.1217 18.188 26.7752 17.6176C26.5761 17.2882 26.2436 17.0448 26.0094 16.7322C25.6863 16.305 25.4217 15.8324 25.0845 15.4172C24.8503 15.1403 24.5857 14.799 24.2836 14.7346C24.0331 14.6821 23.4594 14.9924 23.4594 15.1475C23.4594 16.1427 22.6656 16.4887 22.1223 17.0567C21.3332 17.892 21.3613 19.1879 22.1223 20.1044C22.3565 20.3955 22.6539 20.6461 22.9208 20.9158L22.9325 20.8991Z" fill="white"/>
<path id="Vector_10" d="M47.6926 20.2642C46.6553 19.417 45.55 18.639 44.604 17.6963C44.1356 17.219 43.8031 16.3646 44.604 15.8324C45.4048 15.3002 45.7443 15.9923 46.1143 16.6033C46.9807 18.0352 49.1116 18.6628 50.5635 17.8657C50.9779 17.6271 51.4674 17.0734 51.465 16.6725C51.4627 16.2715 50.9779 15.6868 50.5611 15.4672C49.8586 15.0926 49.011 14.9708 48.2452 14.6821C47.4795 14.3933 46.6716 14.1499 46.023 13.6821C43.8898 12.1404 44.1778 9.10947 46.5265 7.94006C47.0133 7.72695 47.5104 7.53897 48.0158 7.37683C48.0158 6.84224 47.8987 6.25276 48.0532 5.75159C48.1797 5.35064 48.6386 5.0571 48.9477 4.71582C49.2475 5.05948 49.8188 5.41747 49.8001 5.74204C49.7345 6.93532 50.0881 7.4699 51.2543 7.94722C52.1909 8.32906 52.9051 9.41256 53.5655 10.3004C53.7341 10.539 53.3313 11.1953 53.1885 11.6607C52.781 11.4769 52.1394 11.3958 52.0176 11.0879C51.3713 9.60826 49.5893 8.91377 47.8027 9.49609C47.2805 9.66553 46.6178 10.3266 46.571 10.8182C46.5241 11.3099 47.0393 12.1022 47.5264 12.3528C48.4817 12.8492 49.5823 13.0473 50.6126 13.4005C52.4134 14.021 53.343 15.0711 53.3992 16.5293C53.4601 18.0734 52.5 19.3931 50.7555 19.8442C50.0108 20.0399 49.7954 20.3478 49.8633 21.0518C49.9312 21.7558 49.8422 22.4455 49.0203 22.4837C48.1445 22.5147 47.9923 21.8059 48.0251 21.0518C48.0368 20.7368 48.0251 20.4194 48.0251 20.0972L47.6926 20.2642Z" fill="#72AB3A"/>
<path id="Vector_11" d="M22.9104 20.923C22.6434 20.6533 22.3531 20.4027 22.1119 20.1116C21.3602 19.1951 21.3321 17.8992 22.1119 17.0639C22.6552 16.4888 23.442 16.1427 23.449 15.1547C23.449 14.9996 24.0227 14.6774 24.2732 14.7418C24.5753 14.8062 24.8516 15.1475 25.0741 15.4244C25.4113 15.8396 25.6759 16.3122 25.999 16.7394C26.2332 17.052 26.5657 17.2954 26.7648 17.6248C27.1113 18.1952 27.3197 18.8324 26.5962 19.2786C25.9264 19.6915 25.5658 19.2786 25.2099 18.6987C24.7416 17.9374 24.1117 17.7656 23.1867 18.6677C23.7342 18.9661 24.2988 19.2307 24.8774 19.46C25.8702 19.7846 26.6664 20.3001 26.8514 21.4146C27.0364 22.5291 26.5095 23.2952 25.5822 23.868C25.3364 24.0183 25.2848 24.4646 25.0671 24.7033C24.8071 24.9897 24.4816 25.3572 24.1538 25.3906C23.9009 25.4169 23.5661 25.0183 23.3342 24.7486C23.0041 24.3644 22.7465 23.9157 22.435 23.5148C22.2922 23.331 22.0206 23.2236 21.9386 23.0232C21.7232 22.5077 21.3415 21.8776 21.4843 21.4504C21.5874 21.1378 22.421 21.0781 22.9221 20.9063C23.5497 22.3382 24.1351 22.5769 25.1303 21.5506L22.9104 20.923Z" fill="#72AB3A"/>
<path id="Vector_12" d="M22.9102 20.9228L25.1394 21.5433C24.1442 22.5624 23.5588 22.3285 22.9312 20.8989L22.9102 20.9228Z" fill="white"/>
</g>
</svg>
