<svg width="75" height="52" viewBox="0 0 75 52" fill="none" xmlns="http://www.w3.org/2000/svg">
<g id="Layer 1">
<path id="Vector" d="M29.8713 25.0307L32.254 20.4943C32.4809 21.1239 32.6238 21.6705 32.8508 22.1825C33.7834 24.2788 34.7455 26.3614 35.6736 28.4601C35.7807 28.7101 35.7952 28.9911 35.7145 29.2511C35.1971 30.5457 34.654 31.8303 34.0852 33.1048C33.2569 34.9498 31.4484 35.6763 29.7034 34.6777C28.267 33.8567 26.9803 32.7704 25.6188 31.7995C25.1105 31.4328 24.609 31.0569 23.9396 30.5657V31.4882C23.9396 37.5167 23.9442 43.5452 23.9532 49.5737C23.9532 50.1226 23.8352 50.3163 23.2566 50.314C17.9331 50.291 12.6095 50.291 7.286 50.314C6.6529 50.314 6.51902 50.1157 6.52582 49.5092C6.55986 46.8962 6.54171 44.2832 6.54171 41.6679V40.9761C7.73304 40.9069 8.87444 40.8331 10.0181 40.7708L17.6018 40.388C19.6781 40.2773 21.2779 38.9604 21.9132 36.8294C22.594 34.5624 22.029 32.4037 20.4473 31.1099C20.2383 30.9127 20.113 30.6406 20.0979 30.3512C20.0684 28.4601 20.0843 26.5666 20.082 24.6732C20.082 23.7991 19.8755 23.5916 19.0019 23.5916C15.2789 23.5916 11.5544 23.5916 7.82834 23.5916C6.9479 23.5916 6.75501 23.7899 6.75274 24.6778C6.75274 26.7973 6.76409 28.9167 6.73686 31.0361C6.73686 31.555 6.89797 31.6957 7.39266 31.7026C10.6104 31.7488 13.8258 31.8387 17.0435 31.8802C18.2825 31.8964 19.2106 32.3922 19.728 33.5338C20.0013 34.0909 20.1179 34.7139 20.0651 35.334C20.0122 35.9542 19.7919 36.5475 19.4285 37.0485C18.8725 37.8672 17.9989 38.0725 17.0798 38.1209L12.8955 38.3354L5.01454 38.7598C3.89583 38.8197 2.88377 38.5522 2.03509 37.7819C1.31121 37.1246 0.900491 36.2782 1.02076 35.3096C1.4746 31.449 2.00332 27.5975 3.21734 23.8891C4.24301 20.7849 6.33294 18.9583 9.51662 18.4302C9.75979 18.3748 10.0122 18.3768 10.2545 18.436C10.4968 18.4951 10.7226 18.6099 10.9144 18.7715C12.049 19.6756 13.2199 20.5128 14.35 21.4145C14.6904 21.6866 14.9196 21.6728 15.2441 21.4145C16.4467 20.4735 17.6562 19.5395 18.8929 18.647C19.185 18.4536 19.5295 18.3584 19.8778 18.3749C21.7952 18.4717 23.3996 19.2812 24.811 20.6027C26.2837 21.9864 27.829 23.2802 29.3494 24.6109C29.4923 24.7447 29.6557 24.86 29.8713 25.0307Z" stroke="#73AB3A" stroke-width="2" stroke-miterlimit="10"/>
<path id="Vector_2" d="M73.542 49.5783H71.1526C71.1389 49.3292 71.1185 49.1171 71.1185 48.8864C71.1185 47.3021 71.1185 45.7177 71.1185 44.1333C71.1185 42.5489 70.2108 41.5964 68.636 41.5964H47.9841C46.4297 41.5964 45.5197 42.5189 45.5107 44.0779C45.5016 45.6369 45.5107 47.2467 45.5107 48.8311V49.5806H43.1484C43.1167 49.5345 43.0735 49.4999 43.0735 49.4676C43.0735 47.3712 42.976 45.2656 43.1462 43.1831C43.3163 41.1006 44.9797 39.5208 47.0197 39.1541C47.2216 39.1195 47.5597 38.9396 47.5552 38.8404C47.5393 38.5083 47.4985 38.0125 47.2852 37.881C42.3429 34.8022 38.8891 30.4065 36.3794 25.1829C35.6024 23.4861 34.9206 21.7459 34.3371 19.9707C34.1161 19.2871 34.023 18.5675 34.0626 17.849C34.1284 16.3223 35.1223 15.3121 36.6063 15.0815C37.3013 14.9574 38.0171 15.0843 38.6296 15.4402C39.2422 15.7962 39.7129 16.3587 39.9602 17.0303C41.41 20.5269 43.4833 23.7209 46.0757 26.4513C49.5453 30.1413 53.7274 32.097 58.8149 32.1362C60.976 32.193 63.1283 32.4384 65.2481 32.8696C68.7722 33.5269 70.8916 35.727 71.5179 39.3432C71.5813 39.7892 71.7984 40.1978 72.1306 40.4963C72.5404 40.8539 72.8745 41.2923 73.1124 41.7851C73.3504 42.2779 73.4873 42.8148 73.5148 43.363C73.5874 45.404 73.542 47.4589 73.542 49.5783Z" stroke="#73AB3A" stroke-width="2" stroke-miterlimit="10"/>
<path id="Vector_3" d="M65.8919 22.217C65.8895 24.329 65.0616 26.3536 63.5905 27.8453C62.1194 29.337 60.1254 30.1737 58.0473 30.1712C55.9692 30.1688 53.9771 29.3274 52.5094 27.8323C51.0416 26.3371 50.2184 24.3106 50.2208 22.1986C50.1959 17.8674 53.7449 14.2697 58.0427 14.2628C59.0729 14.2582 60.0937 14.4607 61.0465 14.8585C61.9994 15.2563 62.8654 15.8417 63.5949 16.5809C64.3244 17.3202 64.9028 18.1987 65.297 19.1659C65.6912 20.1332 65.8934 21.1701 65.8919 22.217Z" stroke="#73AB3A" stroke-width="2" stroke-miterlimit="10"/>
<path id="Vector_4" d="M22.1308 9.03694C22.1227 10.5831 21.6634 12.092 20.8111 13.3727C19.9588 14.6534 18.7518 15.6483 17.3429 16.2316C15.934 16.8148 14.3865 16.96 12.8963 16.649C11.406 16.3379 10.0401 15.5846 8.97143 14.4842C7.90272 13.3838 7.17925 11.9859 6.8926 10.4675C6.60595 8.94902 6.769 7.37827 7.36111 5.95404C7.95323 4.52981 8.94779 3.31614 10.2189 2.46664C11.49 1.61715 12.9805 1.17003 14.5018 1.18187C15.511 1.18578 16.5095 1.39236 17.4399 1.78975C18.3702 2.18714 19.2142 2.7675 19.9231 3.49747C20.6321 4.22743 21.1921 5.09261 21.571 6.04326C21.9498 6.99392 22.1401 8.0113 22.1308 9.03694Z" stroke="#73AB3A" stroke-width="2" stroke-miterlimit="10"/>
<path id="Vector_5" d="M29.4403 10.123C29.6944 10.2277 29.937 10.3591 30.1641 10.5151C30.9652 11.237 31.7367 11.9865 32.5286 12.713C32.8963 13.0497 32.8418 13.4048 32.5763 13.7439C32.5284 13.8238 32.4638 13.892 32.3871 13.9439C32.3104 13.9957 32.2235 14.0299 32.1325 14.044C32.0414 14.058 31.9485 14.0517 31.8601 14.0253C31.7717 13.999 31.6901 13.9533 31.621 13.8914C30.7269 13.2296 29.8056 12.6 28.9569 11.8735C28.73 11.6844 28.637 11.1632 28.7164 10.8541C28.7958 10.5451 29.1725 10.3767 29.4403 10.123Z" stroke="#73AB3A" stroke-width="2" stroke-miterlimit="10"/>
<path id="Vector_6" d="M46.5608 12.775C46.3339 13.1002 46.2136 13.4 45.9935 13.566C45.1517 14.1979 44.2758 14.786 43.4157 15.3949C43.039 15.6624 42.6896 15.6509 42.4037 15.2796C42.1178 14.9083 42.0814 14.5554 42.4854 14.2095C43.3023 13.5176 44.0738 12.7496 44.9179 12.0877C45.0654 11.9992 45.2298 11.944 45.4001 11.9257C45.5704 11.9074 45.7426 11.9265 45.905 11.9816C46.1683 12.0808 46.318 12.4636 46.5608 12.775Z" stroke="#73AB3A" stroke-width="2" stroke-miterlimit="10"/>
<path id="Vector_7" d="M36.2568 11.8598C36.06 12.0597 35.8343 12.2277 35.5874 12.358C35.5079 12.3949 35.4211 12.4129 35.3337 12.4106C35.2463 12.4084 35.1606 12.386 35.083 12.3451C35.0054 12.3042 34.9379 12.2459 34.8857 12.1746C34.8336 12.1034 34.798 12.0209 34.7818 11.9336C34.4823 10.852 34.1805 9.76808 33.9173 8.67492C33.8875 8.55666 33.8809 8.43358 33.8979 8.31273C33.9149 8.19187 33.9551 8.0756 34.0163 7.97056C34.0776 7.86552 34.1585 7.77376 34.2546 7.70052C34.3507 7.62728 34.4601 7.57399 34.5765 7.54371C34.6928 7.51342 34.8139 7.50673 34.9328 7.52401C35.0518 7.54128 35.1662 7.5822 35.2695 7.64441C35.3729 7.70662 35.4632 7.78891 35.5352 7.88659C35.6073 7.98426 35.6597 8.09541 35.6895 8.21367C35.896 9.35757 36.0503 10.5153 36.2568 11.8598Z" stroke="#73AB3A" stroke-width="2" stroke-miterlimit="10"/>
<path id="Vector_8" d="M39.7627 13.1904C39.0547 13.1904 38.6962 12.6923 38.8709 12.148C39.1932 11.1563 39.5154 10.1623 39.8535 9.17527C40.0668 8.55028 40.5343 8.30813 41.072 8.51108C41.6098 8.71403 41.8277 9.22832 41.5713 9.81872C41.1356 10.8104 40.6818 11.7929 40.2098 12.7661C40.1031 12.9714 39.8558 13.1028 39.7627 13.1904Z" stroke="#73AB3A" stroke-width="2" stroke-miterlimit="10"/>
</g>
</svg>
