<svg width="41" height="43" viewBox="0 0 41 43" fill="none" xmlns="http://www.w3.org/2000/svg">
<g id="Frame" clip-path="url(#clip0_107_761)">
<g id="Group">
<path id="Vector" d="M12.4208 39.0832C12.8423 37.7307 13.2358 36.4063 13.6573 35.1101C15.0343 30.6297 16.4112 26.1494 17.7601 21.6691C17.8444 21.3591 17.8444 20.9646 17.7601 20.6547C17.4791 19.6121 17.1138 18.5695 16.8047 17.5269C16.7484 17.3578 16.6922 17.2169 16.6079 17.0197C15.5682 17.5832 14.5846 18.1468 13.573 18.7104C12.9267 19.0767 12.2522 19.443 11.6059 19.8093C10.7909 20.2602 10.1446 19.9784 9.9198 19.1048C8.71144 14.3145 7.53118 9.55242 6.35091 4.76212C6.26661 4.45216 6.32281 4.08584 6.43522 3.77588C6.85674 2.76147 7.33447 1.77523 7.75599 0.788991C7.9808 0.225426 8.37422 0 8.93625 0C16.6641 0 24.3639 0 32.0918 0C32.6539 0 33.0192 0.225426 33.244 0.732634C33.6936 1.74705 34.1713 2.76147 34.5929 3.80406C34.7053 4.05767 34.7334 4.42398 34.6772 4.67759C33.4969 9.43971 32.3166 14.2018 31.1083 18.9921C30.8554 19.9784 30.2652 20.232 29.366 19.7529C27.7361 18.8512 26.1343 17.9495 24.4482 17.0197C24.3077 17.4705 24.1672 17.9214 24.0267 18.344C23.7457 19.1894 23.4928 20.0347 23.2399 20.8801C23.1837 21.021 23.1837 21.2182 23.2399 21.3591C25.0384 27.192 26.865 32.9967 28.6916 38.8014C28.7197 38.8578 28.7478 38.9142 28.7759 38.9987C30.1247 38.3506 31.3612 37.5334 32.4572 36.5754C37.2063 32.4332 39.3982 27.192 38.9767 20.9083C38.7519 17.4987 37.5716 14.3709 35.5764 11.6094C35.4921 11.4967 35.3797 11.3558 35.2954 11.2431C34.902 10.6796 34.9582 10.0878 35.464 9.74967C35.9417 9.41153 36.5319 9.49607 36.8972 10.0596C37.5154 10.9895 38.1898 11.9194 38.6957 12.9056C44.2598 23.5852 39.5949 36.6317 28.5511 41.3938C16.5236 46.4941 2.61342 39.0269 0.337207 26.1212C-0.674445 20.2883 0.562018 14.9626 4.0747 10.1723C4.27141 9.91874 4.58052 9.69332 4.88964 9.5806C5.28306 9.43971 5.64838 9.66514 5.87319 10.0315C6.1261 10.4259 6.0418 10.8204 5.81699 11.1868C5.19876 12.1448 4.52432 13.0747 4.0185 14.0891C-0.562039 23.0498 3.00684 34.2084 11.915 38.8578C12.0555 38.9142 12.2241 38.9987 12.4208 39.0832ZM26.8369 39.8722C26.8088 39.7313 26.7807 39.6468 26.7526 39.5341C25.0665 34.152 23.3804 28.7418 21.7224 23.3598C21.3571 22.2045 21.3571 22.2326 20.1768 22.2045C19.8115 22.2045 19.6429 22.3172 19.5586 22.6835C17.9287 28.0655 16.2707 33.4476 14.6127 38.8296C14.5003 39.1678 14.416 39.5341 14.3036 39.9004C18.4907 41.3375 22.6498 41.3375 26.8369 39.8722ZM18.5188 13.6383C15.3153 10.0315 12.196 6.45282 9.02055 2.846C8.85194 3.21232 8.73954 3.55046 8.57093 3.83224C8.34612 4.22674 8.34612 4.59305 8.45852 5.01573C9.13296 7.6363 9.77929 10.2851 10.4537 12.9338C10.819 14.4273 11.2125 15.9207 11.6059 17.4987C13.9102 16.2025 16.1583 14.9345 18.5188 13.6383ZM31.9794 2.87418C28.7759 6.481 25.6566 10.0596 22.4811 13.6383C24.8136 14.9345 27.0898 16.2025 29.366 17.4705C29.4222 17.386 29.4503 17.3578 29.4503 17.3296C30.4901 13.1311 31.5579 8.9325 32.5977 4.73394C32.6258 4.59305 32.6539 4.39581 32.5977 4.25491C32.4291 3.80406 32.2042 3.38139 31.9794 2.87418ZM14.5565 6.0865C16.5798 8.36894 18.5188 10.595 20.514 12.8493C22.5092 10.595 24.4482 8.36894 26.4715 6.0865C22.453 6.0865 18.575 6.0865 14.5565 6.0865ZM10.9877 2.05701C11.4935 2.64875 11.9993 3.18414 12.4489 3.71953C12.6737 3.97313 12.8986 4.08584 13.2358 4.08584C17.7601 4.08584 22.2844 4.02949 26.8088 4.11402C27.8766 4.1422 28.6635 3.8886 29.2255 2.98689C29.4222 2.67693 29.7032 2.39515 30.0123 2.05701C23.6333 2.05701 17.3386 2.05701 10.9877 2.05701ZM21.3571 20.0911C21.7505 18.8231 22.172 17.555 22.5654 16.287C22.5935 16.1743 22.5092 15.9771 22.3968 15.8925C21.8629 15.5544 21.3009 15.2726 20.767 14.9626C20.6545 14.9063 20.4859 14.8499 20.4016 14.9063C19.7272 15.2444 19.0809 15.6107 18.4345 16.0052C18.8842 17.386 19.3057 18.7385 19.7272 20.0911C20.2611 20.0911 20.7951 20.0911 21.3571 20.0911Z" fill="#73AB3A"/>
<path id="Vector_2" d="M30.4056 23.5573C30.4056 24.2054 30.4056 24.7971 30.4056 25.3888C30.4056 25.4734 30.518 25.5861 30.6023 25.6424C31.2205 25.9806 31.8388 26.3187 32.457 26.6569C32.5413 26.7132 32.7099 26.7132 32.8223 26.6569C33.4406 26.3469 34.0588 26.0088 34.677 25.6424C34.7894 25.5861 34.8737 25.3888 34.8737 25.2761C34.9018 24.459 34.8737 23.6418 34.8737 22.8528C34.8737 22.2329 35.2109 21.8384 35.7449 21.8384C36.2788 21.8384 36.616 22.2329 36.616 22.8528C36.616 23.8954 36.616 24.938 36.616 25.9806C36.616 26.4033 36.4474 26.7132 36.054 26.9105C35.0704 27.4458 34.115 27.9531 33.1595 28.4884C32.8223 28.6857 32.4851 28.6857 32.1479 28.4884C31.1924 27.9531 30.2089 27.4177 29.2534 26.9105C28.86 26.685 28.6914 26.3751 28.6914 25.9524C28.6914 24.938 28.6914 23.8954 28.6914 22.881C28.6914 22.1765 29.0286 21.8384 29.7031 21.8384C30.8833 21.8384 32.0355 21.8384 33.2157 21.8384C33.834 21.8384 34.2274 22.2047 34.2274 22.7119C34.2274 23.2473 33.834 23.5854 33.1876 23.5854C32.2603 23.5573 31.361 23.5573 30.4056 23.5573Z" fill="#73AB3A"/>
</g>
</g>
<defs>
<clipPath id="clip0_107_761">
<rect width="41" height="43" fill="white"/>
</clipPath>
</defs>
</svg>
